<?xml version="1.0" standalone="no"?><!DOCTYPE svg PUBLIC "-//W3C//DTD SVG 1.1//EN" "http://www.w3.org/Graphics/SVG/1.1/DTD/svg11.dtd"><svg t="1537059862818" class="icon" style="" viewBox="0 0 1025 1024" version="1.1" xmlns="http://www.w3.org/2000/svg" p-id="10983" xmlns:xlink="http://www.w3.org/1999/xlink" width="64.0625" height="64"><defs><style type="text/css"></style></defs><path d="M873.41056 632.46848c-53.82656 0-101.01248 28.25216-127.6416 70.71744l-105.01632-105.01632c13.9264-25.61024 21.8368-54.9632 21.8368-86.1696s-7.9104-60.55936-21.83168-86.1696l123.84256-123.84256c21.10976 18.24256 48.60416 29.30176 78.6944 29.30176 66.52928 0 120.46848-53.9392 120.46848-120.46848S909.824 90.35264 843.29472 90.35264s-120.46848 53.9392-120.46848 120.46848c0 14.2848 2.49856 27.9808 7.0656 40.69888l-126.6176 126.6176c-32.08704-29.11232-74.67008-46.848-121.38496-46.848-31.20128 0-60.55936 7.90528-86.17472 21.82656L294.10816 251.52c4.56704-12.71296 7.0656-26.41408 7.0656-40.69888 0-66.52928-53.94432-120.46848-120.4736-120.46848-66.52928 0-120.46848 53.9392-120.46848 120.46848S114.176 331.29472 180.70528 331.29472c30.09024 0 57.58464-11.0592 78.69952-29.30176l88.61696 88.61696c-29.1072 32.0768-46.84288 74.65984-46.84288 121.39008 0 31.20128 7.90528 60.55424 21.82144 86.16448L250.624 670.53056c-26.5984-23.66464-61.62944-38.06208-100.03968-38.06208C67.41504 632.46848 0 699.8784 0 783.05792c0 83.16928 67.41504 150.58944 150.58944 150.58944 83.17952 0 150.58944-67.42016 150.58944-150.58944 0-22.78912-5.08928-44.38016-14.14656-63.73888l73.46176-73.45664c32.08192 29.1072 74.66496 46.84288 121.39008 46.84288 46.72 0 89.30304-17.7408 121.38496-46.848l120.4992 120.49408c-0.60416 5.48352-0.9472 11.05408-0.9472 16.70656 0 83.16928 67.40992 150.58944 150.58432 150.58944 83.17952 0 150.58944-67.42016 150.58944-150.58944C1024 699.8784 956.59008 632.46848 873.41056 632.46848z" p-id="10984"></path></svg>