<?xml version="1.0" standalone="no"?><!DOCTYPE svg PUBLIC "-//W3C//DTD SVG 1.1//EN" "http://www.w3.org/Graphics/SVG/1.1/DTD/svg11.dtd"><svg t="1537059876752" class="icon" style="" viewBox="0 0 1170 1024" version="1.1" xmlns="http://www.w3.org/2000/svg" p-id="11681" xmlns:xlink="http://www.w3.org/1999/xlink" width="73.125" height="64"><defs><style type="text/css"></style></defs><path d="M0 0v292.571429h1170.285714V0H0z m438.857143 219.428571H292.571429V73.142857h146.285714v146.285714zM219.428571 219.428571H73.142857V73.142857h146.285714v146.285714z m438.857143 0H512V73.142857h146.285714v146.285714zM0 365.714286v292.571428h1170.285714V365.714286H0z m438.857143 219.428571H292.571429V438.857143h146.285714v146.285714zM219.428571 585.142857H73.142857V438.857143h146.285714v146.285714z m438.857143 0H512V438.857143h146.285714v146.285714z m-658.285714 146.285714v292.571429h1170.285714v-292.571429H0z m438.857143 219.428572H292.571429v-146.285714h146.285714v146.285714z m-219.428572 0H73.142857v-146.285714h146.285714v146.285714z m438.857143 0H512v-146.285714h146.285714v146.285714z" p-id="11682"></path></svg>