<?xml version="1.0" standalone="no"?><!DOCTYPE svg PUBLIC "-//W3C//DTD SVG 1.1//EN" "http://www.w3.org/Graphics/SVG/1.1/DTD/svg11.dtd"><svg t="1537060585188" class="icon" style="" viewBox="0 0 1024 1024" version="1.1" xmlns="http://www.w3.org/2000/svg" p-id="23468" xmlns:xlink="http://www.w3.org/1999/xlink" width="128" height="128"><defs><style type="text/css"></style></defs><path d="M64.1 325.2v-235c0-12.4 10-22.4 22.4-22.4H937c12.4 0 22.4 10 22.4 22.4v235c0 12.4-10 22.4-22.4 22.4H86.4c-12.3 0-22.3-10-22.3-22.4z m501.4-72.7H858c24.2 0 44-19.8 44-44V207c0-24.2-19.8-44-44-44H565.5c-24.2 0-44 19.8-44 44v1.5c0 24.2 19.8 44 44 44z m-308.9-44.8c0 24.7 20 44.8 44.8 44.8s44.8-20 44.8-44.8-20-44.8-44.8-44.8-44.8 20.1-44.8 44.8z m-134.2 0c0 24.7 20 44.8 44.8 44.8s44.8-20 44.8-44.8-20-44.8-44.8-44.8-44.8 20.1-44.8 44.8zM671 594.8h250.4c14 0 27.1 4.3 37.9 11.6V394.2c0-12.6-10.2-22.8-22.8-22.8H86.8c-12.6 0-22.8 10.2-22.8 22.8v234.2c0 12.6 10.2 22.8 22.8 22.8h517c5.8-31.9 33.7-56.4 67.2-56.4z m-503.8-38.7c-24.7 0-44.8-20-44.8-44.8s20-44.8 44.8-44.8c24.7 0 44.8 20 44.8 44.8s-20.1 44.8-44.8 44.8z m134.2 0c-24.7 0-44.8-20-44.8-44.8s20-44.8 44.8-44.8c24.7 0 44.8 20 44.8 44.8s-20.1 44.8-44.8 44.8z m220.1-44.8c0-24.6 20.1-44.8 44.8-44.8h291c24.6 0 44.8 20.1 44.8 44.8 0 24.6-20.1 44.8-44.8 44.8h-291c-24.7 0-44.8-20.2-44.8-44.8zM602.7 859.7h-36.5c-24.6 0-44.8-20.1-44.8-44.8s20.1-44.8 44.8-44.8h36.5V675H86.8C74.2 675 64 685.2 64 697.8V932c0 12.6 10.2 22.8 22.8 22.8h534.4c-11.4-12.2-18.4-28.5-18.4-46.5l-0.1-48.6z m-435.5 0c-24.7 0-44.8-20-44.8-44.8s20-44.8 44.8-44.8c24.7 0 44.8 20 44.8 44.8s-20.1 44.8-44.8 44.8z m134.2 0c-24.7 0-44.8-20-44.8-44.8s20-44.8 44.8-44.8c24.7 0 44.8 20 44.8 44.8s-20.1 44.8-44.8 44.8z" p-id="23469"></path><path d="M914.2 955.4H668c-24.6 0-44.8-20.1-44.8-44.8V664.5c0-24.6 20.1-44.8 44.8-44.8h246.2c24.6 0 44.8 20.1 44.8 44.8v246.2c0 24.6-20.2 44.7-44.8 44.7zM791.1 647.7c-77.3 0-139.9 62.6-139.9 139.9s62.6 139.9 139.9 139.9S931 864.8 931 787.6s-62.7-139.9-139.9-139.9z" p-id="23470"></path><path d="M838.8 873.9c-10.5 0-20.3-4.1-27.7-11.5l-40.5-40.5c-21.2 3.4-43-3.4-58.3-18.7a66.99 66.99 0 0 1-15-72c1.4-3.5 4.4-6.1 8.1-6.9 3.7-0.8 7.5 0.4 10.2 3l24.2 24.2 15.9-15.9-24.2-24.2c-2.7-2.7-3.8-6.5-3-10.2 0.8-3.7 3.3-6.8 6.9-8.1 24.9-9.8 53.1-3.9 72 15 15.3 15.3 22.2 37.1 18.7 58.3l40.5 40.5c7.4 7.4 11.5 17.2 11.5 27.7s-4.1 20.3-11.5 27.7c-7.5 7.5-17.3 11.6-27.8 11.6z m-55.7-71.1l43.8 43.8c3.2 3.2 7.4 4.9 11.9 4.9s8.7-1.7 11.9-4.9 4.9-7.4 4.9-11.9-1.7-8.7-4.9-11.9L806.9 779c-0.3-0.2-0.6-0.5-1-0.9-2.8-2.8-3.9-6.9-2.9-10.8 4.2-15.7-0.1-31.9-11.5-43.3-7.9-7.9-18.2-12.4-28.9-13l16.8 16.8c4.4 4.4 4.4 11.5 0 15.8l-31.7 31.7c-2.1 2.1-4.9 3.3-7.9 3.3s-5.8-1.2-7.9-3.3l-16.8-16.8c0.7 10.7 5.1 21 13 28.9 11.4 11.4 27.6 15.7 43.3 11.5 3.9-1 8 0.1 10.8 2.9 0.4 0.4 0.7 0.7 0.9 1z" p-id="23471"></path></svg>