<?xml version="1.0" standalone="no"?><!DOCTYPE svg PUBLIC "-//W3C//DTD SVG 1.1//EN" "http://www.w3.org/Graphics/SVG/1.1/DTD/svg11.dtd"><svg t="1537059906997" class="icon" style="" viewBox="0 0 1024 1024" version="1.1" xmlns="http://www.w3.org/2000/svg" p-id="12358" xmlns:xlink="http://www.w3.org/1999/xlink" width="64" height="64"><defs><style type="text/css"></style></defs><path d="M147.314718 661.216025c41.463115 8.263372 72.54217 43.510676 72.54217 89.142041l0 163.731772c0 20.694994-16.599871 37.367993-37.294865 37.367993L37.404556 951.45783C16.709562 951.45783 0.109691 934.784832 0.109691 914.089838l0-163.731772c0-45.631365 31.079054-80.805542 72.54217-89.142041L72.65186 659.168464c0-41.463115 16.599871-76.710419 43.510676-103.621224 26.910805-26.983932 64.20567-43.583803 103.621224-43.583803l219.747197 0L439.530958 366.879097 402.309219 366.879097c-60.110548 0-109.910162-49.726487-109.910162-109.837035L292.399057 109.837035c0-60.110548 49.799614-109.837035 109.910162-109.837035l147.1319 0c60.183675 0 109.837035 49.726487 109.837035 109.837035l0 147.1319c0 60.110548-49.726487 109.837035-109.837035 109.837035l-37.294865 0 0 145.084339 219.67407 0c39.415554 0 76.710419 16.599871 103.694351 43.583803 24.863244 26.910805 41.389988 62.158109 41.389988 103.621224l0 0c41.389988 0 74.662858 33.126616 74.662858 72.54217l0 182.379204c0 20.694994-16.746126 37.367993-37.44112 37.367993l-145.084339 0c-20.694994 0-37.294865-16.672999-37.294865-37.367993l0-182.379204c0-41.463115 33.126616-72.54217 72.54217-72.54217l0 0c0-20.694994-8.263372-39.415554-20.694994-51.847176-14.55231-14.479183-31.152182-22.815682-51.847176-22.815682L512.073127 584.432479l0 74.662858 0 0c39.415554 0 72.54217 31.079054 72.54217 72.54217l0 182.379204c0 20.694994-16.599871 37.367993-35.247304 37.367993L402.309219 951.384703c-20.694994 0-37.367993-16.672999-37.367993-37.367993l0-182.379204c0-41.463115 33.199743-72.54217 74.662858-72.54217L439.604085 584.505606 219.783761 584.505606c-20.694994 0-39.415554 8.263372-51.774048 22.815682-12.431622 12.431622-20.694994 31.152182-20.694994 51.847176L147.314718 661.216025z" p-id="12359"></path></svg>