<?xml version="1.0" standalone="no"?><!DOCTYPE svg PUBLIC "-//W3C//DTD SVG 1.1//EN" "http://www.w3.org/Graphics/SVG/1.1/DTD/svg11.dtd"><svg t="1537060333537" class="icon" style="" viewBox="0 0 1024 1024" version="1.1" xmlns="http://www.w3.org/2000/svg" p-id="18500" xmlns:xlink="http://www.w3.org/1999/xlink" width="64" height="64"><defs><style type="text/css"></style></defs><path d="M199.850325 458.777129C233.538522 540.150684 307.781449 593.728449 389.2089 593.728449 470.668154 593.728449 544.928039 540.167431 578.597157 458.789688 613.364412 451.900401 643.527124 419.103542 653.066918 375.816797 658.672079 350.424193 656.579684 324.658971 647.171326 303.266801 636.681791 279.469349 617.695478 263.013352 595.033164 258.142076 592.633376 257.625012 589.355927 257.629199 587.649363 257.754802 578.728594 275.598704 562.898893 291.374356 541.822306 304.330235 544.207255 306.702026 547.001354 308.655143 550.187647 309.930006 556.920622 312.63883 564.418901 312.299703 570.840244 309.10731 574.647681 307.219088 578.158326 305.741168 584.384631 306.574331 593.646714 307.813605 598.808803 317.721537 601.132273 323.03242 606.311322 334.774145 607.35646 350.164617 604.023891 365.268295 597.880264 393.177129 579.093226 410.470476 563.390722 410.470476L563.276247 410.470476C551.531698 409.53474 540.584253 416.310984 536.893411 427.347241 513.512433 497.217719 454.155827 544.165773 389.21314 544.165773 323.288915 544.165773 265.335719 498.314645 241.566789 427.347241 238.151543 417.119025 226.975143 410.424422 216.029817 410.424422 215.162756 410.424422 214.282975 410.470476 213.401074 410.568865 199.464493 410.568865 180.609617 393.242024 174.43207 365.232706 171.082542 350.162522 172.146759 334.772051 177.308848 323.030328 179.645038 317.719442 184.775328 307.409586 197.094384 306.26451 200.265836 305.971439 203.825239 307.216996 207.647517 309.105218 214.117619 312.329009 221.649817 312.605335 228.300114 309.927912 231.486406 308.669796 234.263546 306.699932 236.631535 304.344888 215.537988 291.389008 199.691328 275.596612 190.77056 257.754802 188.987678 257.465917 185.485513 257.700374 183.066645 258.215344 160.43613 263.084527 141.774171 279.452601 131.286756 303.266801 121.857198 324.661065 119.766923 350.424193 125.386923 375.800049 134.941558 419.103542 165.09791 451.88784 199.850325 458.777129L199.850325 458.777129Z" p-id="18501"></path><path d="M215.815702 223.19951C215.815702 270.164312 293.469635 308.219721 389.194062 308.219721 484.967246 308.219721 562.606341 270.162217 562.606341 223.19951 562.606341 221.325942 561.722319 219.584256 561.478524 217.744182L216.939278 217.744182C216.695483 219.584256 215.815702 221.325942 215.815702 223.19951L215.815702 223.19951Z" p-id="18502"></path><path d="M205.716239 167.005032 210.958886 184.702399 567.439835 184.702399 572.686724 166.988285 598.253375 80.739265C600.559887 72.981228 599.578346 64.624487 595.527114 57.607504 591.458921 50.586335 584.696266 45.491067 576.769755 43.48771L435.184355 7.801997C404.994082 0.190497 373.360121 0.190497 343.167729 7.801997L201.662886 43.489803C193.723656 45.49316 186.958881 50.588428 182.907648 57.609598 178.856415 64.62658 177.860037 72.983322 180.162307 80.726705L205.716239 167.005032 205.716239 167.005032Z" p-id="18503"></path><path d="M740.035933 919.372415 740.035933 1020.937526 38.415789 1020.937526 38.415789 843.344218C38.415789 737.880137 124.992611 652.391012 231.793799 652.391012L243.915699 652.391012 334.037085 867.139579 359.294223 740.896688C358.772714 740.268676 358.119768 739.766265 357.644898 739.088013L337.240337 710.630715C329.59154 699.952423 328.597282 685.945671 334.690031 674.314896 340.78278 662.698776 352.921639 655.390813 366.173477 655.390813L412.231607 655.390813C425.481323 655.390813 437.622301 662.698776 443.715052 674.314896 449.807801 685.945671 448.811422 699.952423 441.164746 710.630715L420.760183 739.088013C420.285313 739.751612 419.647208 740.233087 419.14054 740.84854L444.416756 867.137485 534.533903 652.388918 546.657921 652.388918C568.751718 652.388918 589.979933 656.047387 609.755212 662.784358 601.725623 684.13656 597.333333 707.26963 597.333333 731.428571 597.333333 821.017739 657.734612 896.499432 740.035933 919.372415Z" p-id="18504"></path><path d="M816.752998 536.653202C722.643493 536.653202 646.367983 612.946522 646.367983 707.038218 646.367983 801.129916 722.643493 877.441046 816.752998 877.441046 910.862507 877.441046 987.155827 801.147726 987.155827 707.038218 987.155827 612.928712 910.862507 536.653202 816.752998 536.653202L816.752998 536.653202ZM917.790393 715.049591C917.790393 723.220765 911.111363 729.899796 902.922377 729.899796L839.330099 729.917606 839.188107 793.63456C839.188107 801.805734 832.491266 808.484764 824.337903 808.484764L807.765004 808.484764C799.59383 808.484764 792.9148 801.787924 792.9148 793.63456L792.808431 729.917606 729.180531 729.899796C721.009354 729.899796 714.330327 723.220765 714.330327 715.049591L714.330327 698.476693C714.330327 690.305519 721.009354 683.626489 729.180531 683.626489L792.826241 683.821912 792.93261 619.891724C792.93261 611.720548 799.611641 605.04152 807.782814 605.04152L824.355713 605.04152C832.526887 605.04152 839.205917 611.720548 839.205917 619.891724L839.347909 683.821912 902.958 683.626489C911.129173 683.626489 917.808204 690.323329 917.808204 698.476693L917.790393 715.049591 917.790393 715.049591 917.790393 715.049591Z" p-id="18505"></path></svg>