<?xml version="1.0" standalone="no"?><!DOCTYPE svg PUBLIC "-//W3C//DTD SVG 1.1//EN" "http://www.w3.org/Graphics/SVG/1.1/DTD/svg11.dtd"><svg t="1537060251133" class="icon" style="" viewBox="0 0 1024 1024" version="1.1" xmlns="http://www.w3.org/2000/svg" p-id="16469" xmlns:xlink="http://www.w3.org/1999/xlink" width="64" height="64"><defs><style type="text/css"></style></defs><path d="M889.6 812.8c0-12.8 6.4-19.2 19.2-25.6 19.2-6.4 19.2-19.2 6.4-32-12.8-12.8-12.8-32 0-44.8 12.8-12.8 12.8-25.6-6.4-38.4-12.8-6.4-19.2-25.6-12.8-44.8 6.4-12.8 0-32-12.8-32-19.2 0-25.6-19.2-25.6-38.4 6.4-19.2-6.4-25.6-25.6-25.6-19.2 6.4-32-6.4-38.4-25.6 0-19.2-19.2-25.6-32-19.2-12.8 6.4-32 0-44.8-12.8-6.4-12.8-25.6-19.2-38.4-6.4s-32 12.8-44.8 0c6.4 0-12.8 6.4-19.2 19.2-6.4 19.2-25.6 25.6-38.4 19.2-12.8-6.4-32 0-32 19.2s-19.2 32-32 25.6c-19.2 0-25.6 12.8-25.6 25.6 6.4 19.2-6.4 32-19.2 38.4-19.2 6.4-25.6 19.2-12.8 32s6.4 32-6.4 44.8c-12.8 6.4-12.8 25.6 0 38.4 6.4 6.4 12.8 25.6 0 38.4-12.8 12.8-6.4 32 12.8 32 19.2 6.4 25.6 25.6 19.2 38.4-6.4 19.2 0 32 19.2 32s32 12.8 32 32 12.8 25.6 25.6 19.2c19.2-6.4 32 0 38.4 19.2 6.4 19.2 19.2 19.2 32 12.8 12.8-12.8 32-6.4 44.8 6.4 12.8 12.8 25.6 12.8 38.4 0 6.4-12.8 25.6-19.2 44.8-6.4 12.8 12.8 32 6.4 32-12.8 6.4-19.2 19.2-25.6 38.4-19.2 19.2 6.4 32-6.4 25.6-25.6 0-6.4 0-19.2 6.4-25.6 0 0 19.2 6.4 38.4-19.2 12.8-25.6-6.4-38.4-6.4-38.4z m-70.4-44.8l-64-38.4c0-19.2-12.8-44.8-32-51.2-19.2-12.8-44.8-12.8-64 0l38.4 19.2c12.8 6.4 19.2 25.6 6.4 38.4-6.4 12.8-25.6 19.2-38.4 12.8l-38.4-19.2c0 25.6 6.4 44.8 32 57.6 19.2 12.8 44.8 12.8 64 0l64 38.4c-19.2 19.2-38.4 32-64 38.4-83.2 19.2-160-32-179.2-108.8-19.2-76.8 25.6-153.6 102.4-172.8 76.8-19.2 153.6 25.6 179.2 102.4 0 25.6 0 57.6-6.4 83.2zM678.4 320h-448c-6.4 0-12.8 0-19.2-6.4-6.4 0-6.4-6.4-6.4-12.8v-12.8c0-6.4 0-6.4 6.4-12.8 6.4 0 12.8-6.4 19.2-6.4h448c12.8 0 25.6 6.4 25.6 19.2v19.2c0 6.4 0 6.4-6.4 12.8h-19.2zM454.4 454.4c0 6.4 0 6.4-6.4 12.8 0 6.4 0 6.4-6.4 6.4H217.6c-6.4 0-6.4 0-6.4-6.4s-6.4-6.4-6.4-12.8v-19.2c0-6.4 0-6.4 6.4-12.8 0-6.4 6.4-6.4 6.4-6.4h224c6.4 0 12.8 6.4 12.8 19.2v19.2zM332.8 608v12.8c0 6.4 0 6.4-6.4 6.4H211.2s-6.4 0-6.4-6.4v-32V576H326.4c6.4 0 6.4 6.4 6.4 19.2v12.8z" p-id="16470"></path><path d="M390.4 851.2H147.2c-19.2 0-38.4-12.8-38.4-38.4V140.8c0-19.2 19.2-38.4 38.4-38.4H256v38.4c0 19.2 19.2 38.4 38.4 38.4h307.2c19.2 0 38.4-12.8 38.4-38.4v-32h89.6c6.4 0 19.2 6.4 25.6 12.8 6.4 0 12.8 12.8 12.8 19.2v268.8c25.6 6.4 51.2 19.2 70.4 32V108.8c0-38.4-32-70.4-70.4-70.4h-128c0-25.6-19.2-38.4-38.4-38.4H294.4c-19.2 0-38.4 12.8-38.4 38.4H115.2C76.8 38.4 44.8 70.4 44.8 108.8v748.8c0 38.4 32 70.4 70.4 70.4h326.4c-25.6-25.6-38.4-51.2-51.2-76.8z" p-id="16471"></path><path d="M678.4 1024c-166.4 0-300.8-134.4-300.8-300.8S512 416 678.4 416s300.8 134.4 300.8 300.8-134.4 307.2-300.8 307.2z m0-588.8c-160 0-288 128-288 288s128 288 288 288 288-128 288-288-128-288-288-288z" p-id="16472"></path></svg>