<?xml version="1.0" standalone="no"?><!DOCTYPE svg PUBLIC "-//W3C//DTD SVG 1.1//EN" "http://www.w3.org/Graphics/SVG/1.1/DTD/svg11.dtd"><svg t="1537059785366" class="icon" style="" viewBox="0 0 1024 1024" version="1.1" xmlns="http://www.w3.org/2000/svg" p-id="10306" xmlns:xlink="http://www.w3.org/1999/xlink" width="64" height="64"><defs><style type="text/css"></style></defs><path d="M106.72 64h128v128h-128V64z m0 768h128v128h-128v-128z m0-384h128v128h-128v-128z m874.56-192c23.52 0 42.72-19.04 42.72-42.72V42.72C1024 19.04 1004.96 0 981.28 0H42.72C19.04 0 0 19.04 0 42.72v170.72C0 236.96 19.04 256 42.72 256H768v128H42.72C19.04 384 0 403.04 0 426.72v170.72C0 620.96 19.04 640 42.72 640H768v128H42.72C19.04 768 0 787.04 0 810.72v170.72C0 1004.96 19.04 1024 42.72 1024h938.72c23.52 0 42.72-19.04 42.72-42.72V810.72c0-23.52-19.04-42.72-42.72-42.72H896v-128h85.28c23.52 0 42.72-19.04 42.72-42.72V426.72c0-23.52-19.04-42.72-42.72-42.72H896v-128h85.28z" p-id="10307"></path></svg>