<?xml version="1.0" standalone="no"?><!DOCTYPE svg PUBLIC "-//W3C//DTD SVG 1.1//EN" "http://www.w3.org/Graphics/SVG/1.1/DTD/svg11.dtd"><svg t="1537060210208" class="icon" style="" viewBox="0 0 1080 1024" version="1.1" xmlns="http://www.w3.org/2000/svg" p-id="16217" xmlns:xlink="http://www.w3.org/1999/xlink" width="67.5" height="64"><defs><style type="text/css"></style></defs><path d="M1012.622222 688.355556v-11.377778V489.244444c-5.688889-182.044444-125.155556-335.644444-295.822222-386.844444l-11.377778-5.688889c-17.066667-73.955556-85.333333-91.022222-164.977778-91.022222s-147.911111 17.066667-164.977777 91.022222c-5.688889 0-11.377778 5.688889-17.066667 5.688889-170.666667 51.2-290.133333 210.488889-290.133333 386.844444V694.044444c-39.822222 22.755556-62.577778 62.577778-68.266667 108.088889 0 147.911111 278.755556 221.866667 540.444444 221.866667s540.444444-73.955556 540.444445-221.866667c-5.688889-45.511111-28.444444-85.333333-68.266667-113.777777z m-472.177778-620.088889c102.4 0 102.4 28.444444 102.4 68.266666 0 102.4-68.266667 204.8-102.4 204.8s-102.4-102.4-102.4-204.8c0-39.822222 0-68.266667 102.4-68.266666z m-164.977777 96.711111c11.377778 108.088889 79.644444 244.622222 164.977777 244.622222s153.6-136.533333 164.977778-244.622222c136.533333 45.511111 233.244444 170.666667 238.933334 318.577778v170.666666c-56.888889 45.511111-204.8 91.022222-403.911112 91.022222-204.8 0-347.022222-45.511111-403.911111-91.022222v-170.666666c5.688889-147.911111 96.711111-273.066667 238.933334-318.577778z m164.977777 790.755555c-295.822222 0-472.177778-91.022222-472.177777-153.6 5.688889-28.444444 22.755556-51.2 51.2-62.577777l5.688889-5.688889c130.844444 62.577778 273.066667 96.711111 420.977777 85.333333 142.222222 5.688889 290.133333-22.755556 420.977778-85.333333l5.688889 5.688889c22.755556 11.377778 45.511111 34.133333 51.2 62.577777-11.377778 62.577778-187.733333 153.6-483.555556 153.6z m0-273.066666c39.822222 0 68.266667-28.444444 68.266667-68.266667s-28.444444-68.266667-68.266667-68.266667-68.266667 28.444444-68.266666 68.266667c0 17.066667 5.688889 34.133333 17.066666 45.511111 17.066667 17.066667 34.133333 22.755556 51.2 22.755556z" p-id="16218"></path></svg>